<svg xmlns="http://www.w3.org/2000/svg" width="1200" height="1010" viewBox="0 0 1200 1010"><rect width="1200" height="1010" fill="#f4f4f0"/><g font-family="Georgia, serif"><text x="60" y="72" font-size="40" fill="#4a5d44" >Regular gasoline across the West</text><text x="60" y="120" font-size="24" fill="#5b5b57" >September 19, 2026 · dollars per gallon</text><line x1="280" x2="280" y1="160" y2="810" stroke="#d5d8cf"/><text x="280" y="845" font-size="20" fill="#5b5b57" text-anchor="middle">$0.00</text><line x1="467.5" x2="467.5" y1="160" y2="810" stroke="#d5d8cf"/><text x="467.5" y="845" font-size="20" fill="#5b5b57" text-anchor="middle">$1.75</text><line x1="655" x2="655" y1="160" y2="810" stroke="#d5d8cf"/><text x="655" y="845" font-size="20" fill="#5b5b57" text-anchor="middle">$3.50</text><line x1="842.5" x2="842.5" y1="160" y2="810" stroke="#d5d8cf"/><text x="842.5" y="845" font-size="20" fill="#5b5b57" text-anchor="middle">$5.25</text><line x1="1030" x2="1030" y1="160" y2="810" stroke="#d5d8cf"/><text x="1030" y="845" font-size="20" fill="#5b5b57" text-anchor="middle">$7.00</text><text x="60" y="192" font-size="25" fill="#4a5d44" >California</text><rect x="280" y="170" width="657.5571428571428" height="27" fill="#4a5d44"/><text x="1128" y="192" font-size="25" fill="#4a5d44" text-anchor="end">$6.14</text><text x="60" y="240" font-size="25" fill="#4a5d44" >Washington</text><rect x="280" y="218" width="595.9392857142858" height="27" fill="#4a5d44"/><text x="1128" y="240" font-size="25" fill="#4a5d44" text-anchor="end">$5.56</text><text x="60" y="288" font-size="25" fill="#4a5d44" >Hawaii</text><rect x="280" y="266" width="591.2035714285714" height="27" fill="#4a5d44"/><text x="1128" y="288" font-size="25" fill="#4a5d44" text-anchor="end">$5.52</text><text x="60" y="336" font-size="25" fill="#4a5d44" >Nevada</text><rect x="280" y="314" width="563.925" height="27" fill="#4a5d44"/><text x="1128" y="336" font-size="25" fill="#4a5d44" text-anchor="end">$5.26</text><text x="60" y="384" font-size="25" fill="#4a5d44" >Oregon</text><rect x="280" y="362" width="546.7607142857142" height="27" fill="#4a5d44"/><text x="1128" y="384" font-size="25" fill="#4a5d44" text-anchor="end">$5.10</text><text x="60" y="432" font-size="25" fill="#4a5d44" >Alaska</text><rect x="280" y="410" width="541.842857142857" height="27" fill="#4a5d44"/><text x="1128" y="432" font-size="25" fill="#4a5d44" text-anchor="end">$5.06</text><text x="60" y="480" font-size="25" fill="#4a5d44" >Idaho</text><rect x="280" y="458" width="520.5964285714285" height="27" fill="#4a5d44"/><text x="1128" y="480" font-size="25" fill="#4a5d44" text-anchor="end">$4.86</text><text x="60" y="528" font-size="25" fill="#4a5d44" >Utah</text><rect x="280" y="506" width="514.9821428571429" height="27" fill="#4a5d44"/><text x="1128" y="528" font-size="25" fill="#4a5d44" text-anchor="end">$4.81</text><text x="60" y="576" font-size="25" fill="#4a5d44" >Arizona</text><rect x="280" y="554" width="499.83214285714286" height="27" fill="#4a5d44"/><text x="1128" y="576" font-size="25" fill="#4a5d44" text-anchor="end">$4.67</text><text x="60" y="624" font-size="25" fill="#4a5d44" >Montana</text><rect x="280" y="602" width="491.0142857142857" height="27" fill="#4a5d44"/><text x="1128" y="624" font-size="25" fill="#4a5d44" text-anchor="end">$4.58</text><text x="60" y="672" font-size="25" fill="#4a5d44" >Wyoming</text><rect x="280" y="650" width="481.8107142857143" height="27" fill="#4a5d44"/><text x="1128" y="672" font-size="25" fill="#4a5d44" text-anchor="end">$4.50</text><text x="60" y="720" font-size="25" fill="#4a5d44" >New Mexico</text><rect x="280" y="698" width="477.37499999999994" height="27" fill="#4a5d44"/><text x="1128" y="720" font-size="25" fill="#4a5d44" text-anchor="end">$4.46</text><text x="60" y="768" font-size="25" fill="#4a5d44" >Colorado</text><rect x="280" y="746" width="466.78928571428577" height="27" fill="#4a5d44"/><text x="1128" y="768" font-size="25" fill="#4a5d44" text-anchor="end">$4.36</text><text x="60" y="905" font-size="20" fill="#5b5b57" >Source: AAA state gas price averages, September 19, 2026.</text><text x="60" y="940" font-size="20" fill="#5b5b57" >Regular gasoline retail averages, including taxes. Bills also depend on gallons.</text><text x="60" y="975" font-size="18" fill="#5b5b57" >Lookout West · 13-state West · Research snapshot September 19, 2026</text></g></svg>